<?xml version="1.0" encoding="UTF-8"?>
<svg width="229px" height="46px" viewBox="0 0 229 46" version="1.1" xmlns="http://www.w3.org/2000/svg" xmlns:xlink="http://www.w3.org/1999/xlink">
    <!-- Generator: Sketch 49 (51002) - http://www.bohemiancoding.com/sketch -->
    <title>sports-tv-logo-ondark</title>
    <desc>Created with Sketch.</desc>
    <defs></defs>
    <g id="Symbols" stroke="none" stroke-width="1" fill="none" fill-rule="evenodd">
        <g id="brand_logo/FPO-on_dark" transform="translate(0.000000, -14.000000)">
            <g id="sports-tv-logo-ondark" transform="translate(0.000000, 14.000000)">
                <path d="M198,40.0945131 L198,36 L204,36 L204,40.0945131 C209.175682,40.4275452 213,41.6021204 213,43 C213,44.6568542 207.627417,46 201,46 C194.372583,46 189,44.6568542 189,43 C189,41.6021204 192.824318,40.4275452 198,40.0945131 Z M180.691656,3.87690984e-14 L221.308344,3.93906026e-14 C223.982901,3.88992946e-14 224.952759,0.278476833 225.930537,0.801398111 C226.908315,1.32431939 227.675681,2.09168511 228.198602,3.06946289 C228.721523,4.04724067 229,5.01709938 229,7.6916556 L229,31.3083444 C229,33.9829006 228.721523,34.9527593 228.198602,35.9305371 C227.675681,36.9083149 226.908315,37.6756806 225.930537,38.1986019 C224.952759,38.7215232 223.982901,39 221.308344,39 L180.691656,39 C178.017099,39 177.047241,38.7215232 176.069463,38.1986019 C175.091685,37.6756806 174.324319,36.9083149 173.801398,35.9305371 C173.278477,34.9527593 173,33.9829006 173,31.3083444 L173,7.6916556 C173,5.01709938 173.278477,4.04724067 173.801398,3.06946289 C174.324319,2.09168511 175.091685,1.32431939 176.069463,0.801398111 C177.047241,0.278476833 178.017099,3.92604064e-14 180.691656,3.87690984e-14 Z M181.845828,4.99273235 C180.50855,4.99273235 180.02362,5.13197077 179.534731,5.39343141 C179.045843,5.65489205 178.66216,6.03857491 178.400699,6.5274638 C178.139238,7.01635269 178,7.50128205 178,8.83856015 L178,30.0766507 C178,31.4139288 178.139238,31.8988581 178.400699,32.387747 C178.66216,32.8766359 179.045843,33.2603188 179.534731,33.5217794 C180.02362,33.78324 180.50855,33.9224785 181.845828,33.9224785 L220.154172,33.9224785 C221.49145,33.9224785 221.97638,33.78324 222.465269,33.5217794 C222.954157,33.2603188 223.33784,32.8766359 223.599301,32.387747 C223.860762,31.8988581 224,31.4139288 224,30.0766507 L224,8.83856015 C224,7.50128205 223.860762,7.01635269 223.599301,6.5274638 C223.33784,6.03857491 222.954157,5.65489205 222.465269,5.39343141 C221.97638,5.13197077 221.49145,4.99273235 220.154172,4.99273235 L181.845828,4.99273235 Z M214.508694,19.1671102 C214.797412,19.2391623 215,19.4985217 215,19.7960943 C215,20.093667 214.797412,20.3530264 214.508694,20.4250784 L197.285995,24.7307518 C197.067966,24.7851998 196.837293,24.7228103 196.676433,24.5658856 C196.515573,24.4089608 196.447491,24.179903 196.496524,23.9605927 L196.951168,21.9208399 L192.296579,23.0843859 L192.296579,28.6750631 C192.297244,28.9071169 192.173827,29.1218287 191.972973,29.2380482 C191.772118,29.3542676 191.524463,29.3542676 191.323609,29.2380482 C191.122755,29.1218287 190.999337,28.9071169 191.000003,28.6750631 L191.000003,8.65014964 C190.999337,8.41809582 191.122755,8.20338399 191.323609,8.08716457 C191.524463,7.97094514 191.772118,7.97094514 191.972973,8.08716457 C192.173827,8.20338399 192.297244,8.41809582 192.296579,8.65014964 L192.296579,10.4028671 L200.769901,12.5212056 C201.111024,12.6065024 201.321966,12.9481829 201.24537,13.2913647 L200.704231,15.7161517 L214.508694,19.1671102 Z" id="Shape" fill="#F9B300" fill-rule="nonzero"></path>
                <path d="M9.48,33.36 C5.73,33.36 2.46,32.34 0.42,29.49 L3.81,26.46 C4.92,28.02 6.99,29.16 9.24,29.16 C10.86,29.16 12.6,28.65 12.6,27.15 C12.6,25.83 11.52,25.35 10.2,24.99 L6.51,24.03 C3.6,23.25 1.44,21.57 1.44,18.12 C1.44,14.13 4.86,11.25 9.6,11.25 C13.38,11.25 15.63,12.18 17.52,14.49 L14.13,17.43 C13.08,16.08 11.28,15.45 9.6,15.45 C8.04,15.45 6.69,15.99 6.69,17.46 C6.69,18.69 7.98,19.11 9.6,19.53 L12.96,20.43 C16.02,21.21 18.09,23.04 18.09,26.37 C18.09,31.02 13.89,33.36 9.48,33.36 Z M20.38,33 L20.38,11.61 L30.07,11.61 C34.81,11.61 37.54,14.52 37.54,18.48 C37.54,21.99 35.38,25.59 30.16,25.59 L25.75,25.59 L25.75,33 L20.38,33 Z M25.75,21.48 L29.2,21.48 C31.12,21.48 32.32,20.34 32.32,18.63 C32.32,16.8 31.09,15.81 29.17,15.81 L25.75,15.81 L25.75,21.48 Z M48.35,33.36 C43.55,33.36 39.2,31.05 39.2,25.53 L39.2,19.35 C39.2,13.92 43.64,11.25 48.23,11.25 C53,11.25 57.41,13.8 57.41,19.32 L57.41,25.26 C57.41,30.84 52.82,33.36 48.35,33.36 Z M48.35,28.95 C50.24,28.95 52.04,27.87 52.04,25.44 L52.04,19.11 C52.04,16.86 50.27,15.63 48.26,15.63 C46.34,15.63 44.57,16.65 44.57,19.14 L44.57,25.41 C44.57,27.69 46.16,28.95 48.35,28.95 Z M60.03,33 L60.03,11.61 L69.39,11.61 C74.25,11.61 77.04,14.4 77.04,18.36 C77.04,20.97 75.78,23.52 73.02,24.66 L77.91,33 L72.06,33 L67.83,25.44 L65.4,25.44 L65.4,33 L60.03,33 Z M65.4,21.48 L68.7,21.48 C70.65,21.48 71.82,20.37 71.82,18.63 C71.82,16.8 70.62,15.81 68.7,15.81 L65.4,15.81 L65.4,21.48 Z M84.49,33 L84.49,15.9 L78.43,15.9 L78.43,11.61 L95.92,11.61 L95.92,15.9 L89.86,15.9 L89.86,33 L84.49,33 Z M105.29,33.36 C101.54,33.36 98.27,32.34 96.23,29.49 L99.62,26.46 C100.73,28.02 102.8,29.16 105.05,29.16 C106.67,29.16 108.41,28.65 108.41,27.15 C108.41,25.83 107.33,25.35 106.01,24.99 L102.32,24.03 C99.41,23.25 97.25,21.57 97.25,18.12 C97.25,14.13 100.67,11.25 105.41,11.25 C109.19,11.25 111.44,12.18 113.33,14.49 L109.94,17.43 C108.89,16.08 107.09,15.45 105.41,15.45 C103.85,15.45 102.5,15.99 102.5,17.46 C102.5,18.69 103.79,19.11 105.41,19.53 L108.77,20.43 C111.83,21.21 113.9,23.04 113.9,26.37 C113.9,31.02 109.7,33.36 105.29,33.36 Z M116.1,33 L116.1,27.84 L121.14,27.84 L121.14,33 L116.1,33 Z M129.16,33 L129.16,15.9 L123.1,15.9 L123.1,11.61 L140.59,11.61 L140.59,15.9 L134.53,15.9 L134.53,33 L129.16,33 Z M148.1,33.06 L141.32,11.61 L146.84,11.61 L151.04,26.7 L151.13,26.7 L155.45,11.61 L160.55,11.61 L153.59,33.06 L148.1,33.06 Z" id="SPORTS.TV" fill="#F4F4F4"></path>
            </g>
        </g>
    </g>
</svg>