<?xml version="1.0" encoding="UTF-8" standalone="no"?>
<svg width="500px" height="411px" viewBox="0 0 500 411" version="1.1" xmlns="http://www.w3.org/2000/svg" xmlns:xlink="http://www.w3.org/1999/xlink">
    <!-- Generator: Sketch 49 (51002) - http://www.bohemiancoding.com/sketch -->
    <title>Group</title>
    <desc>Created with Sketch.</desc>
    <defs></defs>
    <g id="Page-1" stroke="none" stroke-width="1" fill="none" fill-rule="evenodd">
        <g id="Group" transform="translate(0.000000, -45.000000)">
            <rect id="Rectangle" fill-opacity="0" fill="#1A1A1A" x="0" y="0" width="500" height="500"></rect>
            <path d="M223.214286,402.986724 L223.214286,366.428571 L276.785714,366.428571 L276.785714,402.986724 C322.997161,405.960225 357.142857,416.447504 357.142857,428.928571 C357.142857,443.721912 309.173366,455.714286 250,455.714286 C190.826634,455.714286 142.857143,443.721912 142.857143,428.928571 C142.857143,416.447504 177.002839,405.960225 223.214286,402.986724 Z M68.6755,45 L431.3245,45 C455.204473,45 463.86392,47.4864003 472.59408,52.1553403 C481.324241,56.8242803 488.175723,63.6757599 492.844661,72.4059187 C497.513598,81.1360774 500,89.7955302 500,113.675496 L500,324.538789 C500,348.418755 497.513598,357.078208 492.844661,365.808367 C488.175723,374.538526 481.324241,381.390005 472.59408,386.058946 C463.86392,390.727886 455.204473,393.214286 431.3245,393.214286 L68.6755,393.214286 C44.7955268,393.214286 36.1360804,390.727886 27.4059196,386.058946 C18.6757589,381.390005 11.8242768,374.538526 7.15533929,365.808367 C2.48640179,357.078208 0,348.418755 0,324.538789 L0,113.675496 C0,89.7955302 2.48640179,81.1360774 7.15533929,72.4059187 C11.8242768,63.6757599 18.6757589,56.8242803 27.4059196,52.1553403 C36.1360804,47.4864003 44.7955268,45 68.6755,45 Z M78.9806071,89.5779674 C67.040625,89.5779674 62.7108929,90.8211676 58.3458125,93.1556376 C53.9807411,95.4901076 50.555,98.9158474 48.2205268,103.280927 C45.8860536,107.646006 44.6428571,111.975733 44.6428571,123.915716 L44.6428571,313.541524 C44.6428571,325.481507 45.8860536,329.811233 48.2205268,334.176312 C50.555,338.541392 53.9807411,341.967132 58.3458125,344.301602 C62.7108929,346.636071 67.040625,347.879272 78.9806071,347.879272 L421.019393,347.879272 C432.959375,347.879272 437.289107,346.636071 441.654188,344.301602 C446.019259,341.967132 449.445,338.541392 451.779473,334.176312 C454.113946,329.811233 455.357143,325.481507 455.357143,313.541524 L455.357143,123.915716 C455.357143,111.975733 454.113946,107.646006 451.779473,103.280927 C449.445,98.9158474 446.019259,95.4901076 441.654188,93.1556376 C437.289107,90.8211676 432.959375,89.5779674 421.019393,89.5779674 L78.9806071,89.5779674 Z M370.613339,216.134912 C373.191179,216.778235 375,219.093944 375,221.750842 C375,224.407741 373.191179,226.72345 370.613339,227.366771 L216.839241,265.810284 C214.892554,266.296427 212.832973,265.739378 211.396723,264.338264 C209.960473,262.93715 209.352598,260.891991 209.790393,258.933863 L213.849714,240.721785 L172.290884,251.110588 L172.290884,301.027349 C172.296821,303.099258 171.194884,305.016328 169.401545,306.054002 C167.608196,307.091675 165.396991,307.091675 163.603652,306.054002 C161.810313,305.016328 160.708366,303.099258 160.714313,301.027349 L160.714313,122.233479 C160.708366,120.16157 161.810313,118.2445 163.603652,117.206827 C165.396991,116.169153 167.608196,116.169153 169.401545,117.206827 C171.194884,118.2445 172.296821,120.16157 172.290884,122.233479 L172.290884,137.882742 L247.945545,156.796479 C250.991286,157.558057 252.874696,160.608776 252.190804,163.672899 L247.359205,185.322783 L370.613339,216.134912 Z" id="Shape" fill="#F9B300" fill-rule="nonzero"></path>
        </g>
    </g>
</svg>