<?xml version="1.0" encoding="UTF-8"?>
<svg width="229px" height="46px" viewBox="0 0 229 46" version="1.1" xmlns="http://www.w3.org/2000/svg" xmlns:xlink="http://www.w3.org/1999/xlink">
    <!-- Generator: Sketch 49 (51002) - http://www.bohemiancoding.com/sketch -->
    <title>sports-tv-logo-onlight</title>
    <desc>Created with Sketch.</desc>
    <defs></defs>
    <g id="Symbols" stroke="none" stroke-width="1" fill="none" fill-rule="evenodd">
        <g id="brand_logo/FPO-on_light" transform="translate(0.000000, -14.000000)">
            <g id="sports-tv-logo-onlight" transform="translate(0.000000, 14.000000)">
                <path d="M9.44,31.552 C5.344,31.552 1.664,30.144 0,26.688 L3.744,24.32 C4.736,26.24 6.912,27.488 9.376,27.488 C11.392,27.488 13.408,26.752 13.408,24.896 C13.408,23.36 12.16,22.72 10.56,22.272 L6.656,21.28 C3.616,20.512 1.216,18.912 1.216,15.072 C1.216,10.784 4.928,8 9.664,8 C13.568,8 16.16,9.12 17.92,12.064 L14.336,14.4 C13.312,12.704 11.488,12.032 9.504,12.032 C7.744,12.032 6.112,12.736 6.112,14.528 C6.112,16 7.584,16.576 9.312,17.056 L13.088,18.016 C16.064,18.752 18.432,20.544 18.432,24.352 C18.432,28.928 14.304,31.552 9.44,31.552 Z M21.228,31.2 L21.228,8.384 L31.02,8.384 C35.756,8.384 38.86,11.168 38.86,15.648 C38.86,19.232 36.556,22.976 31.18,22.976 L26.188,22.976 L26.188,31.2 L21.228,31.2 Z M26.188,18.976 L30.284,18.976 C32.556,18.976 33.996,17.792 33.996,15.712 C33.996,13.376 32.46,12.416 30.252,12.416 L26.188,12.416 L26.188,18.976 Z M50.328,31.584 C45.304,31.584 40.824,28.96 40.824,23.456 L40.824,16.544 C40.824,10.944 45.464,8 50.168,8 C55.192,8 59.704,10.976 59.704,16.448 L59.704,23.04 C59.704,28.736 54.968,31.584 50.328,31.584 Z M50.328,27.36 C52.408,27.36 54.744,26.176 54.744,23.264 L54.744,16.224 C54.744,13.664 52.6,12.224 50.2,12.224 C48.088,12.224 45.784,13.344 45.784,16.32 L45.784,23.296 C45.784,25.888 47.832,27.36 50.328,27.36 Z M62.916,31.2 L62.916,8.384 L72.42,8.384 C77.156,8.384 80.356,11.104 80.356,15.584 C80.356,18.304 78.948,21.088 75.94,22.24 L81.412,31.2 L75.94,31.2 L71.012,22.912 L67.876,22.912 L67.876,31.2 L62.916,31.2 Z M67.876,18.976 L71.78,18.976 C74.052,18.976 75.492,17.792 75.492,15.712 C75.492,13.376 73.956,12.416 71.748,12.416 L67.876,12.416 L67.876,18.976 Z M88.464,31.2 L88.464,12.512 L81.968,12.512 L81.968,8.384 L99.952,8.384 L99.952,12.512 L93.456,12.512 L93.456,31.2 L88.464,31.2 Z M109.948,31.552 C105.852,31.552 102.172,30.144 100.508,26.688 L104.252,24.32 C105.244,26.24 107.42,27.488 109.884,27.488 C111.9,27.488 113.916,26.752 113.916,24.896 C113.916,23.36 112.668,22.72 111.068,22.272 L107.164,21.28 C104.124,20.512 101.724,18.912 101.724,15.072 C101.724,10.784 105.436,8 110.172,8 C114.076,8 116.668,9.12 118.428,12.064 L114.844,14.4 C113.82,12.704 111.996,12.032 110.012,12.032 C108.252,12.032 106.62,12.736 106.62,14.528 C106.62,16 108.092,16.576 109.82,17.056 L113.596,18.016 C116.572,18.752 118.94,20.544 118.94,24.352 C118.94,28.928 114.812,31.552 109.948,31.552 Z M121.544,31.2 L121.544,26.08 L126.344,26.08 L126.344,31.2 L121.544,31.2 Z M135.124,31.2 L135.124,12.512 L128.628,12.512 L128.628,8.384 L146.612,8.384 L146.612,12.512 L140.116,12.512 L140.116,31.2 L135.124,31.2 Z M154.368,31.296 L146.976,8.384 L152.224,8.384 L157.056,24.832 L157.152,24.832 L162.016,8.384 L166.848,8.384 L159.36,31.296 L154.368,31.296 Z" id="SPORTS.TV" fill="#404040"></path>
                <path d="M198,40.0945131 L198,36 L204,36 L204,40.0945131 C209.175682,40.4275452 213,41.6021204 213,43 C213,44.6568542 207.627417,46 201,46 C194.372583,46 189,44.6568542 189,43 C189,41.6021204 192.824318,40.4275452 198,40.0945131 Z M180.691656,3.87690984e-14 L221.308344,3.93906026e-14 C223.982901,3.88992946e-14 224.952759,0.278476833 225.930537,0.801398111 C226.908315,1.32431939 227.675681,2.09168511 228.198602,3.06946289 C228.721523,4.04724067 229,5.01709938 229,7.6916556 L229,31.3083444 C229,33.9829006 228.721523,34.9527593 228.198602,35.9305371 C227.675681,36.9083149 226.908315,37.6756806 225.930537,38.1986019 C224.952759,38.7215232 223.982901,39 221.308344,39 L180.691656,39 C178.017099,39 177.047241,38.7215232 176.069463,38.1986019 C175.091685,37.6756806 174.324319,36.9083149 173.801398,35.9305371 C173.278477,34.9527593 173,33.9829006 173,31.3083444 L173,7.6916556 C173,5.01709938 173.278477,4.04724067 173.801398,3.06946289 C174.324319,2.09168511 175.091685,1.32431939 176.069463,0.801398111 C177.047241,0.278476833 178.017099,3.92604064e-14 180.691656,3.87690984e-14 Z M181.845828,4.99273235 C180.50855,4.99273235 180.02362,5.13197077 179.534731,5.39343141 C179.045843,5.65489205 178.66216,6.03857491 178.400699,6.5274638 C178.139238,7.01635269 178,7.50128205 178,8.83856015 L178,30.0766507 C178,31.4139288 178.139238,31.8988581 178.400699,32.387747 C178.66216,32.8766359 179.045843,33.2603188 179.534731,33.5217794 C180.02362,33.78324 180.50855,33.9224785 181.845828,33.9224785 L220.154172,33.9224785 C221.49145,33.9224785 221.97638,33.78324 222.465269,33.5217794 C222.954157,33.2603188 223.33784,32.8766359 223.599301,32.387747 C223.860762,31.8988581 224,31.4139288 224,30.0766507 L224,8.83856015 C224,7.50128205 223.860762,7.01635269 223.599301,6.5274638 C223.33784,6.03857491 222.954157,5.65489205 222.465269,5.39343141 C221.97638,5.13197077 221.49145,4.99273235 220.154172,4.99273235 L181.845828,4.99273235 Z M214.508694,19.1671102 C214.797412,19.2391623 215,19.4985217 215,19.7960943 C215,20.093667 214.797412,20.3530264 214.508694,20.4250784 L197.285995,24.7307518 C197.067966,24.7851998 196.837293,24.7228103 196.676433,24.5658856 C196.515573,24.4089608 196.447491,24.179903 196.496524,23.9605927 L196.951168,21.9208399 L192.296579,23.0843859 L192.296579,28.6750631 C192.297244,28.9071169 192.173827,29.1218287 191.972973,29.2380482 C191.772118,29.3542676 191.524463,29.3542676 191.323609,29.2380482 C191.122755,29.1218287 190.999337,28.9071169 191.000003,28.6750631 L191.000003,8.65014964 C190.999337,8.41809582 191.122755,8.20338399 191.323609,8.08716457 C191.524463,7.97094514 191.772118,7.97094514 191.972973,8.08716457 C192.173827,8.20338399 192.297244,8.41809582 192.296579,8.65014964 L192.296579,10.4028671 L200.769901,12.5212056 C201.111024,12.6065024 201.321966,12.9481829 201.24537,13.2913647 L200.704231,15.7161517 L214.508694,19.1671102 Z" id="Shape" fill="#F9B300" fill-rule="nonzero"></path>
            </g>
        </g>
    </g>
</svg>