<?xml version="1.0" encoding="UTF-8"?>
<svg width="260px" height="260px" viewBox="0 0 260 260" version="1.1" xmlns="http://www.w3.org/2000/svg" xmlns:xlink="http://www.w3.org/1999/xlink">
    <!-- Generator: Sketch 49.2 (51160) - http://www.bohemiancoding.com/sketch -->
    <title>Artboard</title>
    <desc>Created with Sketch.</desc>
    <defs></defs>
    <g id="Artboard" stroke="none" stroke-width="1" fill="none" fill-rule="evenodd">
        <path d="M37,183.571429 L74.0556673,183.571429 C76.7384306,207.548625 100.044936,223.309859 131.90275,223.309859 C162.419182,223.309859 184.384306,207.548625 184.384306,185.918846 C184.384306,167.139504 171.138162,155.905433 139.783367,148.192488 L108.428571,140.647217 C63.9953052,129.916164 43.3715627,109.124748 43.3715627,75.4225352 C43.3715627,33.6720322 79.7565392,5 131.399732,5 C182.539906,5 217.583501,33.6720322 218.75721,75.4225352 L182.204561,75.4225352 C180.024816,51.277666 160.071764,36.6901408 130.896714,36.6901408 C101.721663,36.6901408 81.7686117,51.4453387 81.7686117,72.9074447 C81.7686117,90.0100604 94.5117371,100.070423 125.69886,107.783367 L152.35882,114.322602 C201.98994,126.059691 222.613682,146.012743 222.613682,181.391683 C222.613682,226.663313 186.564051,255 129.219987,255 C75.5647217,255 39.3474178,227.334004 37,183.571429 Z" id="S" fill="#000000"></path>
    </g>
</svg>