<?xml version="1.0" standalone="no"?>
<!DOCTYPE svg PUBLIC "-//W3C//DTD SVG 20010904//EN"
 "http://www.w3.org/TR/2001/REC-SVG-20010904/DTD/svg10.dtd">
<svg version="1.0" xmlns="http://www.w3.org/2000/svg"
 width="700.000000pt" height="700.000000pt" viewBox="0 0 700.000000 700.000000"
 preserveAspectRatio="xMidYMid meet">
<metadata>
Created by potrace 1.11, written by Peter Selinger 2001-2013
</metadata>
<g transform="translate(0.000000,700.000000) scale(0.100000,-0.100000)"
fill="#000000" stroke="none">
<path d="M3488 6865 c-2 -1 -66 -5 -143 -9 -77 -4 -156 -8 -175 -10 -87 -10
-197 -25 -220 -31 -8 -2 -31 -7 -50 -10 -157 -26 -446 -115 -589 -181 -42 -20
-92 -43 -111 -52 -105 -49 -296 -172 -395 -255 -351 -294 -554 -655 -620
-1102 -13 -89 -13 -423 -1 -510 50 -334 186 -615 406 -835 314 -315 728 -512
1420 -678 91 -22 300 -72 465 -112 518 -124 721 -188 929 -291 336 -167 507
-375 552 -669 8 -55 8 -209 0 -247 -4 -15 -8 -39 -11 -52 -9 -50 -48 -153 -77
-209 -157 -293 -479 -501 -913 -586 -133 -26 -201 -31 -415 -31 -227 1 -283 6
-459 40 -441 86 -813 338 -975 661 -44 87 -80 185 -91 241 -3 15 -7 42 -10 58
-13 69 36 63 -511 63 l-495 0 6 -91 c20 -297 135 -625 308 -881 196 -292 500
-538 857 -696 188 -83 490 -174 645 -195 11 -2 47 -8 80 -14 33 -6 85 -13 115
-16 30 -3 69 -8 86 -10 166 -23 587 -23 792 0 23 3 63 7 90 10 41 5 104 14
207 31 121 19 348 78 475 122 342 121 600 280 825 507 291 294 457 657 500
1100 7 62 7 341 1 375 -2 14 -7 52 -11 85 -15 140 -64 316 -122 445 -74 160
-154 274 -292 409 -216 213 -488 372 -883 515 -84 30 -350 113 -388 121 -8 2
-80 20 -160 40 -80 20 -153 38 -163 40 -10 3 -27 7 -37 10 -10 3 -27 7 -37 9
-10 2 -45 11 -78 19 -33 9 -71 18 -85 21 -120 23 -563 142 -700 187 -356 117
-594 266 -715 449 -77 116 -107 216 -110 368 -9 492 357 855 975 967 84 15
178 20 370 19 167 0 228 -4 328 -22 304 -55 537 -167 714 -344 98 -97 111
-113 159 -193 72 -120 119 -249 141 -385 l14 -85 493 -3 493 -2 -6 77 c-8 101
-14 148 -32 248 -11 63 -62 234 -94 315 -60 153 -178 349 -284 475 -113 133
-311 306 -434 380 -185 111 -316 174 -467 228 -135 47 -267 86 -350 101 -94
18 -268 46 -315 51 -106 11 -416 26 -422 20z"/>
</g>
</svg>
