<?xml version="1.0" standalone="no"?>
<!DOCTYPE svg PUBLIC "-//W3C//DTD SVG 20010904//EN"
 "http://www.w3.org/TR/2001/REC-SVG-20010904/DTD/svg10.dtd">
<svg version="1.0" xmlns="http://www.w3.org/2000/svg"
 width="1000.000000pt" height="1000.000000pt" viewBox="0 0 1000.000000 1000.000000"
 preserveAspectRatio="xMidYMid meet">
<metadata>
Created by potrace 1.11, written by Peter Selinger 2001-2013
</metadata>
<g transform="translate(0.000000,1000.000000) scale(0.100000,-0.100000)"
fill="#000000" stroke="none">
<path d="M1088 9105 c-3 -3 -35 -8 -72 -10 -37 -3 -79 -7 -94 -10 -15 -2 -43
-7 -62 -10 -370 -62 -673 -326 -790 -688 -32 -99 -42 -152 -57 -302 -10 -102
-11 -4813 0 -4920 4 -44 9 -91 12 -105 3 -14 8 -43 10 -64 3 -21 8 -43 11 -47
3 -5 7 -19 9 -31 9 -44 38 -129 46 -134 5 -3 9 -14 9 -25 0 -10 5 -19 10 -19
6 0 10 -9 10 -20 0 -11 5 -20 10 -20 6 0 10 -5 10 -11 0 -6 14 -31 30 -56 17
-24 30 -46 30 -49 0 -7 49 -62 115 -129 138 -140 364 -252 565 -280 14 -1 25
-4 25 -5 0 -1 23 -3 50 -5 28 -3 91 -7 140 -11 50 -4 825 -8 1723 -8 897 -1
1633 -3 1633 -6 5 -18 3 -182 -1 -185 -10 -6 -216 -27 -292 -29 -16 -1 -28 -3
-28 -6 0 -3 -17 -5 -38 -6 -42 -1 -144 -12 -176 -19 -11 -2 -39 -7 -61 -10
-44 -6 -136 -22 -175 -31 -14 -3 -34 -6 -45 -8 -55 -9 -292 -70 -302 -78 -7
-6 -13 -8 -13 -4 0 6 -13 1 -145 -49 -254 -98 -368 -227 -309 -352 18 -36 101
-114 150 -140 16 -8 43 -22 59 -31 17 -9 32 -17 35 -17 3 -1 19 -7 35 -15 77
-33 94 -40 111 -43 11 -1 24 -6 29 -9 6 -4 44 -16 85 -26 41 -11 82 -23 90
-26 22 -8 72 -18 98 -20 12 0 22 -5 22 -9 0 -4 6 -7 13 -6 6 2 26 0 42 -4 42
-10 74 -16 115 -23 19 -3 44 -7 55 -8 11 -2 43 -7 70 -11 28 -3 61 -9 75 -11
30 -6 67 -11 143 -18 32 -3 77 -8 100 -11 283 -33 788 -47 1152 -31 208 9 251
13 264 21 6 3 11 1 11 -5 0 -6 4 -9 8 -6 8 5 53 11 162 21 30 3 71 7 90 10 19
2 58 7 85 10 66 7 105 13 131 19 12 2 45 7 74 11 29 4 62 9 74 11 12 3 35 8
51 11 79 14 246 55 395 98 102 29 292 122 347 170 51 43 81 84 87 116 3 13 5
26 6 29 6 15 -4 59 -18 85 -43 76 -171 161 -332 219 -41 15 -84 31 -95 36 -20
9 -54 17 -186 50 -84 21 -124 30 -156 35 -11 2 -29 6 -40 9 -10 3 -35 8 -57
12 -21 3 -48 8 -60 10 -11 2 -41 6 -66 9 -25 3 -54 8 -66 10 -11 3 -43 7 -70
10 -27 4 -65 8 -84 11 -52 6 -116 13 -200 19 -98 8 -164 16 -170 22 -6 6 -7
183 0 184 3 1 748 3 1655 4 908 1 1682 5 1721 9 40 3 89 8 110 11 22 2 59 7
83 10 131 17 262 65 401 150 137 83 264 216 334 349 14 27 30 54 34 60 13 16
61 151 73 205 11 46 17 79 24 136 2 17 4 30 5 30 15 0 23 4853 8 4996 -3 31
-9 62 -12 68 -4 6 -5 11 -3 11 4 0 -5 57 -18 125 -3 16 -15 54 -26 85 -11 30
-21 60 -22 65 -6 25 -63 133 -100 189 -74 110 -160 196 -272 270 -149 98 -278
147 -460 171 -22 3 -58 9 -80 12 -47 8 -7899 15 -7907 8z m7559 -896 c24 -2
43 -7 43 -10 0 -4 15 -9 34 -12 42 -7 143 -56 181 -88 114 -97 175 -213 192
-367 9 -85 9 -4141 -1 -4202 -4 -25 -9 -58 -12 -75 -2 -16 -22 -66 -43 -110
-40 -81 -115 -168 -169 -196 -15 -8 -29 -16 -32 -19 -21 -21 -135 -58 -208
-67 -75 -9 -7191 -10 -7261 0 -81 10 -201 52 -238 82 -7 5 -33 26 -57 45 -48
38 -113 131 -139 198 -9 23 -14 42 -12 42 3 0 1 8 -4 18 -5 10 -13 49 -17 87
-11 91 -11 4096 -1 4195 21 193 118 341 275 419 77 38 122 52 189 57 31 2 58
6 61 9 5 5 7157 -1 7219 -6z"/>
<path d="M3264 7657 c-13 -10 -30 -28 -36 -40 -10 -17 -13 -426 -13 -1844 0
-1003 3 -1823 7 -1823 5 0 8 -7 8 -15 0 -8 16 -25 35 -38 41 -28 88 -28 129
-2 52 34 52 31 51 582 l0 513 55 12 c30 7 61 12 68 11 6 0 12 4 12 10 0 6 3 8
6 4 3 -3 17 -2 31 4 13 5 38 11 56 14 18 3 40 8 49 11 9 3 25 7 35 9 10 2 42
11 72 19 30 8 58 13 63 10 4 -3 8 -1 8 4 0 5 6 9 13 9 6 0 50 10 97 22 47 12
94 24 105 26 11 3 52 13 91 23 44 11 71 14 69 8 -5 -15 -48 -207 -51 -226 -1
-8 -5 -26 -8 -40 -13 -52 -18 -86 -18 -125 0 -33 6 -45 36 -71 42 -36 66 -39
151 -17 33 8 71 17 85 19 14 3 34 8 45 11 11 4 23 8 28 9 4 1 8 2 10 4 1 1 13
4 27 6 14 2 115 27 225 55 110 27 210 52 222 55 12 2 34 9 48 14 14 5 25 8 25
5 0 -2 15 1 33 6 17 6 39 12 47 14 8 2 116 29 240 60 124 31 232 58 240 59 8
2 53 14 100 25 47 12 92 23 100 25 8 2 35 9 60 16 25 7 53 14 62 16 10 2 28 6
41 10 12 3 33 7 47 10 14 3 41 10 60 16 19 7 44 13 55 14 11 2 83 19 160 39
77 20 147 38 155 40 8 2 71 17 140 35 69 17 133 32 143 33 9 1 17 4 17 7 0 3
11 7 25 8 13 1 56 10 95 21 38 11 70 17 70 14 0 -3 7 0 15 7 8 7 15 10 15 7 0
-3 15 -1 33 4 17 6 43 12 56 15 14 3 29 8 35 11 5 4 19 7 30 8 49 4 244 59
273 77 31 18 39 32 48 80 11 57 -37 118 -105 132 -14 3 -72 17 -130 31 -122
31 -133 33 -161 40 -11 2 -29 7 -39 10 -10 3 -28 8 -39 10 -12 3 -29 7 -38 10
-10 2 -47 12 -83 20 -36 9 -72 18 -80 21 -40 10 -146 35 -157 36 -7 1 -13 4
-13 7 0 3 -10 7 -23 8 -12 1 -114 25 -227 53 -113 29 -212 53 -220 55 -8 2
-15 4 -15 5 0 1 -7 3 -16 5 -9 1 -75 17 -145 35 -71 17 -137 34 -146 36 -42
10 -59 14 -173 42 -66 17 -133 34 -150 38 -16 4 -34 8 -40 10 -16 5 -111 29
-153 38 -9 2 -37 9 -62 16 -25 7 -53 14 -63 16 -10 2 -27 6 -37 9 -10 3 -27 8
-37 10 -10 2 -58 14 -106 26 -100 25 -93 10 -62 147 73 324 76 341 61 376 -8
19 -25 41 -38 49 -25 16 -128 49 -128 41 0 -3 -8 0 -17 5 -18 9 -72 22 -105
24 -10 1 -18 4 -18 7 0 3 -8 7 -17 8 -10 1 -90 20 -178 42 -88 23 -171 43
-185 46 -14 3 -46 11 -73 19 -26 8 -49 14 -52 15 -3 0 -6 0 -7 1 -2 0 -10 2
-18 4 -8 2 -28 6 -45 10 -16 4 -38 7 -47 8 -10 1 -18 4 -18 7 0 4 -6 7 -12 8
-24 1 -581 140 -612 152 -20 7 -21 15 -20 166 1 174 -6 207 -52 243 -34 27
-95 26 -130 -2z"/>
</g>
</svg>
